<svg width="50" height="50" viewBox="0 0 50 50" fill="none" xmlns="http://www.w3.org/2000/svg">
<rect width="50" height="50" rx="10" fill="#1F4AF2"/>
<path d="M33.3945 24.8193C33.3945 26.8115 33.0723 28.5449 32.4277 30.0195C31.7832 31.4844 30.8896 32.6611 29.7471 33.5498L33.292 36.333L30.4941 38.8086L25.9531 35.1611C25.4355 35.249 24.8984 35.293 24.3418 35.293C22.5742 35.293 20.9971 34.8682 19.6104 34.0186C18.2236 33.1689 17.1494 31.958 16.3877 30.3857C15.626 28.8037 15.2402 26.9873 15.2305 24.9365V23.8818C15.2305 21.7822 15.6064 19.9365 16.3584 18.3447C17.1201 16.7432 18.1895 15.5176 19.5664 14.668C20.9531 13.8086 22.5352 13.3789 24.3125 13.3789C26.0898 13.3789 27.667 13.8086 29.0439 14.668C30.4307 15.5176 31.5 16.7432 32.252 18.3447C33.0137 19.9365 33.3945 21.7773 33.3945 23.8672V24.8193ZM28.9414 23.8525C28.9414 21.6162 28.541 19.917 27.7402 18.7549C26.9395 17.5928 25.7969 17.0117 24.3125 17.0117C22.8379 17.0117 21.7002 17.5879 20.8994 18.7402C20.0986 19.8828 19.6934 21.5625 19.6836 23.7793V24.8193C19.6836 26.9971 20.084 28.6865 20.8848 29.8877C21.6855 31.0889 22.8379 31.6895 24.3418 31.6895C25.8164 31.6895 26.9492 31.1133 27.7402 29.9609C28.5312 28.7988 28.9316 27.1094 28.9414 24.8926V23.8525Z" fill="white"/>
</svg>
